<svg width="965" height="33" viewBox="0 0 965 33" fill="none" xmlns="http://www.w3.org/2000/svg">
<path fill-rule="evenodd" clip-rule="evenodd" d="M410.6 24.1128H400.4V23.4128H400.9C401.6 23.4128 402 23.1127 402 22.3127V6.21265C402 5.41265 401.6 5.11279 400.9 5.11279H400.4V4.41284H410.6V11.2126H409.9V11.1128C409.9 7.01279 408.7 5.21265 406.4 5.21265H404.8V13.5127H405.2C406.5 13.5127 407.1 12.3126 407.1 9.71265V9.61279H407.8V18.2126H407.1C407.1 15.7126 406.5 14.4128 405.2 14.4128H404.8V23.4128H406.4C408.6 23.4128 410 21.2127 410 17.5127V17.4128H410.7L410.6 24.1128Z" fill="#697279"/>
<path fill-rule="evenodd" clip-rule="evenodd" d="M399.8 24.1128H393.8V23.4128H394.3C395 23.4128 395.4 23.1127 395.4 22.3127V14.5127H391V22.3127C391 23.1127 391.4 23.4128 392.1 23.4128H392.6V24.1128H386.6V23.4128H387.1C387.8 23.4128 388.2 23.1127 388.2 22.3127V6.21265C388.2 5.41265 387.8 5.11279 387.1 5.11279H386.6V4.41284H392.6V5.11279H392.1C391.4 5.11279 391 5.41265 391 6.21265V13.4128H395.4V6.21265C395.4 5.41265 395 5.11279 394.3 5.11279H393.8V4.41284H399.8V5.11279H399.3C398.6 5.11279 398.2 5.41265 398.2 6.21265V22.3127C398.2 23.1127 398.6 23.4128 399.3 23.4128H399.8V24.1128Z" fill="#697279"/>
<path fill-rule="evenodd" clip-rule="evenodd" d="M386.4 11.1128H385.7V11.0127C385.7 7.8127 384.5 5.11279 383.1 5.11279H382.5V22.2126C382.5 23.0126 382.9 23.3127 383.6 23.3127H384.2V24.0127H378.1V23.3127H378.7C379.4 23.3127 379.8 23.0126 379.8 22.2126V5.11279H379.3C377.9 5.11279 376.7 7.7127 376.7 11.0127V11.1128H376V4.21265H386.5L386.4 11.1128Z" fill="#697279"/>
<path fill-rule="evenodd" clip-rule="evenodd" d="M461.4 24.1128H451.3V23.4128H452C452.7 23.4128 453.1 23.1127 453.1 22.3127V6.11279C453.1 5.31279 452.7 5.0127 452 5.0127H451.5V4.31274H457.4V5.0127H456.9C456.2 5.0127 455.8 5.31279 455.8 6.11279V23.3127H457.3C460 23.3127 460.7 20.2128 460.7 17.4128V17.3127H461.4V24.1128Z" fill="#697279"/>
<path fill-rule="evenodd" clip-rule="evenodd" d="M451 24.1128H440.9L441.3 23.4128H441.6C442.3 23.4128 442.7 23.1127 442.7 22.3127V6.11279C442.7 5.31279 442.3 5.0127 441.6 5.0127H441.1V4.31274H447V5.0127H446.5C445.8 5.0127 445.4 5.31279 445.4 6.11279V23.3127H446.9C449.6 23.3127 450.3 20.3128 450.3 17.4128V17.3127H451V24.1128Z" fill="#697279"/>
<path fill-rule="evenodd" clip-rule="evenodd" d="M433 4.91284H432.8C431.8 4.91284 431.3 5.11265 431 6.71265L427.4 24.2126H426.3L424 12.8127L421.7 24.2126H420.6L417 6.31274C416.8 5.21274 416.4 4.91284 415.4 4.91284H415.3V4.21265H420.7V4.91284H420.6C419.8 4.91284 419.6 5.21265 419.6 5.71265C419.6 5.81265 419.6 6.01279 419.6 6.11279L421.9 18.2126L423.4 10.2126L422.6 6.21265C422.4 5.21265 422.2 4.81274 421.4 4.81274H421.3V4.11279H426.6V4.81274H426.5C425.5 4.81274 425.3 5.11274 425.3 5.81274C425.3 6.01274 425.3 6.21284 425.4 6.41284L427.7 18.0127H427.8L429.9 6.41284C429.9 6.21284 429.9 6.11284 429.9 5.91284C429.9 5.11284 429.6 4.81274 428.6 4.81274H428.5V4.11279H433V4.91284Z" fill="#697279"/>
<path fill-rule="evenodd" clip-rule="evenodd" d="M441.4 24.1128H435.8V23.4128H435.9C436.9 23.4128 437.2 23.1128 437.2 22.6128C437.2 22.4128 437.2 22.2127 437.1 22.0127L436.6 19.4128H433.2L432.7 22.0127C432.7 22.2127 432.6 22.4128 432.6 22.6128C432.6 23.2128 432.8 23.4128 433.9 23.4128H434V24.1128H429.7V23.4128H429.9C430.8 23.4128 431.3 23.2127 431.5 22.0127L435 4.0127H436.3L439.9 21.9128C440.1 23.0128 440.7 23.3127 441.1 23.3127H441.3L441.4 24.1128ZM436.5 18.3127L435 9.5127L433.5 18.3127H436.5Z" fill="#697279"/>
<path fill-rule="evenodd" clip-rule="evenodd" d="M532 11.1128H531.3V11.0127C531.3 7.8127 530.1 5.11279 528.7 5.11279H528.1V22.2126C528.1 23.0126 528.5 23.3127 529.2 23.3127H529.8V24.0127H523.7V23.3127H524.3C525 23.3127 525.4 23.0126 525.4 22.2126V5.11279H524.8C523.4 5.11279 522.2 7.7127 522.2 11.0127V11.1128H521.5V4.21265H532V11.1128Z" fill="#697279"/>
<path fill-rule="evenodd" clip-rule="evenodd" d="M520.6 24.1128H510.4V23.4128H510.9C511.6 23.4128 512 23.1127 512 22.3127V6.21265C512 5.41265 511.6 5.11279 510.9 5.11279H510.4V4.41284H520.6V11.2126H519.9V11.1128C519.9 7.01279 518.7 5.21265 516.4 5.21265H514.7V13.5127H515.1C516.4 13.5127 517 12.3126 517 9.71265V9.61279H517.7V18.2126H517C517 15.7126 516.4 14.4128 515.1 14.4128H514.7V23.4128H516.3C518.5 23.4128 519.9 21.2127 519.9 17.5127V17.4128H520.6V24.1128Z" fill="#697279"/>
<path fill-rule="evenodd" clip-rule="evenodd" d="M509.7 24.1128H499.5V23.4128H500C500.7 23.4128 501.1 23.1127 501.1 22.3127V6.21265C501.1 5.41265 500.7 5.11279 500 5.11279H499.5V4.41284H509.7V11.2126H509V11.1128C509 7.01279 507.8 5.21265 505.5 5.21265H503.8V13.5127H504.2C505.5 13.5127 506.1 12.3126 506.1 9.71265V9.61279H506.8V18.2126H506.1C506.1 15.7126 505.5 14.4128 504.2 14.4128H503.8V23.4128H505.4C507.6 23.4128 509 21.2127 509 17.5127V17.4128H509.7V24.1128Z" fill="#697279"/>
<path fill-rule="evenodd" clip-rule="evenodd" d="M486.7 11.1128H486V11.0127C486 7.8127 484.8 5.11279 483.4 5.11279H482.8V22.2126C482.8 23.0126 483.2 23.3127 483.9 23.3127H484.5V24.0127H478.4V23.3127H479C479.7 23.3127 480.1 23.0126 480.1 22.2126V5.11279H479.6C478.2 5.11279 477 7.7127 477 11.0127V11.1128H476.3V4.21265H486.8L486.7 11.1128Z" fill="#697279"/>
<path fill-rule="evenodd" clip-rule="evenodd" d="M476.2 19.3127C476.2 22.8127 474.1 24.3127 471.6 24.3127C470.3 24.3127 469.1 23.9128 468.1 23.1128L467.6 24.1128H467.1V17.3127H467.8V17.5127C467.8 22.3127 470.2 23.4128 471.4 23.4128C473.2 23.4128 474.1 22.3126 474.1 20.2126C474.1 17.9126 472.7 16.2126 470.6 14.7126C468.7 13.3126 467 11.5128 467 8.61278C467 5.61278 468.9 4.01268 471.1 4.01268C472.3 3.91268 473.4 4.41263 474.3 5.21263L474.8 4.21263H475.3V11.1128H474.6V10.9128C474.6 7.21283 473.5 4.91283 471.3 4.91283C469.9 4.91283 469.2 5.91268 469.2 7.51268C469.2 9.41268 470.3 10.4127 472.4 12.0127C474.5 13.8127 476.2 15.6127 476.2 19.3127Z" fill="#697279"/>
<path fill-rule="evenodd" clip-rule="evenodd" d="M499.4 21.4128C499.4 23.1128 498.8 24.3127 497.1 24.3127C495.4 24.3127 494.8 23.1128 494.7 20.6128L494.5 16.9128C494.4 14.9128 493.7 14.4128 492.5 14.4128H491.8V22.2126C491.8 23.0126 492.1 23.3127 492.8 23.3127H493.5V24.0127H487.4V23.3127H488C488.7 23.3127 489.1 23.0126 489.1 22.2126V6.11279C489.1 5.31279 488.7 5.0127 488 5.0127H487.4V4.31274H492.9C496.2 4.31274 498.3 6.01279 498.3 9.11279C498.3 12.4128 496 13.6127 494 14.0127C495.8 14.1127 497.1 15.5127 497.3 17.3127L497.5 21.7126C497.5 22.6126 497.7 22.8127 498 22.8127C498.5 22.8127 498.6 22.4128 498.6 21.1128V20.4128H499.4V21.4128ZM495.3 9.11279C495.3 6.01279 494.1 5.11279 492.4 5.11279H491.8V13.5127H492.5C494.3 13.4127 495.3 12.2128 495.3 9.11279Z" fill="#697279"/>
<path fill-rule="evenodd" clip-rule="evenodd" d="M610.7 24.1128H600.6L601 23.4128H601.3C602 23.4128 602.4 23.1127 602.4 22.3127V6.11279C602.4 5.31279 602 5.0127 601.3 5.0127H600.8V4.31274H606.7V5.0127H606.2C605.5 5.0127 605.1 5.31279 605.1 6.11279V23.3127H606.6C609.3 23.3127 610 20.3128 610 17.4128V17.3127H610.7V24.1128Z" fill="#697279"/>
<path fill-rule="evenodd" clip-rule="evenodd" d="M614.1 22.9129C614.2 23.5129 613.8 24.1127 613.1 24.2127C612.5 24.3127 611.9 23.9127 611.8 23.2127C611.8 23.1127 611.8 22.9128 611.8 22.8128C611.7 22.2128 612.1 21.6128 612.8 21.5128C613.4 21.4128 614 21.8128 614.1 22.5128C614.1 22.6128 614.1 22.8129 614.1 22.9129Z" fill="#697279"/>
<path fill-rule="evenodd" clip-rule="evenodd" d="M590.6 4.91284H590.1C589.5 4.91284 589 5.41274 589 6.31274V24.1128H588L581.8 8.41284V21.8127C581.8 22.8127 582.3 23.2126 582.9 23.2126H583.4V23.9128H579.2V23.2126H579.8C580.4 23.2126 580.9 22.7127 580.9 21.8127V6.11279C580.9 5.41279 580.6 4.91284 579.9 4.91284H579.2V4.21265H583L588.1 17.0127V6.41284C588.1 5.41284 587.6 5.0127 587 5.0127H586.5V4.31274H590.7L590.6 4.91284Z" fill="#697279"/>
<path fill-rule="evenodd" clip-rule="evenodd" d="M567.6 4.91284H566.5C565.9 4.91284 565.5 5.41274 565.5 6.31274V19.6128C565.5 22.2128 564.6 24.2126 561.8 24.2126C558.8 24.2126 557 22.3128 557 19.6128V6.0127C557 5.2127 556.6 4.91284 555.9 4.91284H555.3V4.21265H561.1V4.91284H560.7C560 4.91284 559.6 5.2127 559.6 6.0127V19.7126C559.6 21.9126 560.5 23.2126 562 23.2126C563.5 23.2126 564.5 22.1126 564.5 19.7126V6.31274C564.5 5.41274 564.2 4.91284 563.5 4.91284H562.9V4.21265H567.4L567.6 4.91284Z" fill="#697279"/>
<path fill-rule="evenodd" clip-rule="evenodd" d="M545.1 4.91284H544.6C544.1 4.81284 543.6 5.21274 543.5 5.81274C543.5 5.91274 543.5 6.01279 543.5 6.11279V20.0127C543.5 23.1127 541.5 24.3127 539 24.3127C537.2 24.3127 535.4 22.8127 535.4 20.0127C535.4 18.5127 536.3 17.8127 537.1 17.8127C537.8 17.8127 538.4 18.4128 538.5 19.1128C538.5 19.2128 538.5 19.2127 538.5 19.3127C538.6 20.2127 537.9 21.1128 536.9 21.1128C536.9 21.1128 536.9 21.1128 536.8 21.1128C536.8 22.3128 537.7 23.3127 538.9 23.3127C540.2 23.3127 540.6 22.6128 540.6 20.4128V6.0127C540.6 5.2127 540.2 4.91284 539.5 4.91284H539V4.21265H544.9L545.1 4.91284Z" fill="#697279"/>
<path fill-rule="evenodd" clip-rule="evenodd" d="M601.1 24.1128H595.4V23.4128H595.6C596.6 23.4128 596.9 23.1128 596.9 22.6128C596.9 22.4128 596.9 22.2127 596.8 22.0127L596.3 19.4128H592.9L592.4 22.0127C592.4 22.2127 592.3 22.4128 592.3 22.6128C592.3 23.2128 592.5 23.4128 593.6 23.4128H593.7V24.1128H589.4V23.4128H589.6C590.5 23.4128 591 23.2127 591.2 22.0127L594.7 4.0127H596L599.6 21.9128C599.8 23.0128 600.4 23.3127 600.8 23.3127H601L601.1 24.1128ZM596.2 18.3127L594.7 9.5127H594.6L593.1 18.3127H596.2Z" fill="#697279"/>
<path fill-rule="evenodd" clip-rule="evenodd" d="M579 21.4128C579 23.1128 578.4 24.3127 576.7 24.3127C575 24.3127 574.4 23.1128 574.3 20.6128L574.1 16.9128C574 14.9128 573.3 14.4128 572.1 14.4128H571.4V22.2126C571.4 23.0126 571.7 23.3127 572.4 23.3127H573.1V24.0127H567V23.3127H567.6C568.3 23.3127 568.7 23.0126 568.7 22.2126V6.11279C568.7 5.31279 568.3 5.0127 567.6 5.0127H567V4.31274H572.5C575.8 4.31274 577.9 6.01279 577.9 9.11279C577.9 12.4128 575.6 13.6127 573.6 14.0127C575.4 14.1127 576.8 15.5127 576.9 17.3127L577.1 21.7126C577.1 22.6126 577.2 22.8127 577.6 22.8127C578.1 22.8127 578.2 22.4128 578.2 21.1128V20.4128H579V21.4128ZM575 9.11279C575 6.01279 573.8 5.11279 572.1 5.11279H571.5V13.5127H572.2C573.9 13.4127 575 12.2128 575 9.11279Z" fill="#697279"/>
<path fill-rule="evenodd" clip-rule="evenodd" d="M555.5 14.1128C555.5 19.8128 553.6 24.2126 550.2 24.2126C546.9 24.2126 545 19.7128 545 14.1128C545 8.51275 546.8 4.11276 550.2 4.11276C553.6 4.01276 555.5 8.41276 555.5 14.1128ZM552.4 18.8127V9.4128C552.4 6.0128 551.6 4.9128 550.2 4.9128C548.8 4.9128 548.1 5.9128 548.1 9.4128V18.7126C548.1 22.0126 548.7 23.3127 550.2 23.3127C551.7 23.3127 552.4 22.0127 552.4 18.8127Z" fill="#697279"/>
<path fill-rule="evenodd" clip-rule="evenodd" d="M897.2 9.96484C897.2 12.5648 896.9 20.5649 896.9 20.5649C896.9 22.1649 897.4 22.7649 898.9 22.7649V23.4648H893.1V22.7649C894.2 22.9649 895.2 22.1649 895.3 21.0649C895.3 20.8649 895.3 20.6648 895.3 20.4648L895.8 7.36499C895.6 6.46499 894.7 5.86499 893.8 5.86499V5.26489H898.2L902.8 17.4648L907.5 5.26489H911.5V5.86499C910.7 5.76499 909.9 6.26504 909.8 7.16504C909.8 7.36504 909.8 7.46504 909.8 7.66504L910.3 20.365C910.3 22.265 910.6 22.7649 912.2 22.7649V23.4648H905.6V22.7649C906.9 22.7649 907.5 22.365 907.4 20.365C907.4 20.365 907.1 11.4648 907.1 9.96484L903.9 18.7649C903.4 19.9649 903 21.2649 902.7 22.5649L901.7 22.665C901.4 21.765 900.8 19.9648 900.8 19.9648C900.8 19.9648 898.1 12.4648 897.2 9.96484ZM891.7 23.5649C891.4 23.4649 891 23.4648 890.7 23.4648C890 23.4648 888.8 23.7649 887.3 23.7649C881.7 23.7649 877.6 20.365 877.6 14.165C877.6 8.86504 881.5 4.86499 887.4 4.86499C888.8 4.86499 890.3 5.16504 891.6 5.66504C891.9 5.36504 891.9 5.26484 892.2 4.96484H892.7C892.6 5.86484 892.3 8.96484 892.3 8.96484H891.8C891.5 7.16484 890.5 5.96484 887.5 5.96484C883.9 5.96484 880.6 8.76494 880.6 14.0649C880.6 19.9649 884 22.5649 887.7 22.5649C889.8 22.5649 891.7 21.3648 892.5 19.4648L893.1 19.7649L891.7 23.5649ZM875.5 8.76489H874.9C874.8 7.16489 874.3 6.56494 873 6.56494H870.5V20.0649C870.5 22.2649 870.9 22.7649 872.4 22.7649V23.4648H865.9V22.7649C867.4 22.7649 867.8 22.3648 867.8 19.9648V6.56494H865.3C863.7 6.56494 863.4 6.96489 863 8.76489H862.4L862.8 4.86499L863.2 4.96484C863.4 5.36484 863.7 5.36499 864.8 5.36499H873.2C874.8 5.36499 875.1 5.36499 875.4 4.86499H875.9L875.5 8.76489Z" fill="#697279"/>
<path fill-rule="evenodd" clip-rule="evenodd" d="M857.2 23.865C856.2 23.865 855.3 23.7648 854.4 23.4648C853.9 23.3648 853.4 23.165 852.9 22.865C852.7 23.065 852.5 23.365 852.3 23.665L851.8 23.4648L852.2 19.365L852.8 19.4648C853.1 21.3648 854.4 22.7649 857.1 22.7649C859 22.7649 860.6 21.1649 860.5 19.2649V19.165C860.5 17.565 859.9 16.8649 857.8 15.2649C857.2 14.8649 856.6 14.4649 856 14.0649C854.1 12.8649 852.9 11.4649 852.9 9.26489C852.9 6.66489 855.1 4.96484 857.9 4.96484C858.9 4.96484 860 5.16504 860.9 5.66504L861.5 4.96484L861.9 5.06494L861.5 8.76489L860.9 8.66504C860.9 6.96504 859.9 6.16504 858.1 6.16504C856.5 6.16504 855.3 7.06504 855.3 8.66504C855.3 10.165 856.4 11.0648 857.7 11.9648C858.4 12.3648 858.9 12.7649 859.4 13.0649C862.4 15.2649 863.1 16.565 863.1 18.665C863.2 21.665 860.9 23.865 857.2 23.865ZM847.4 8.76489H846.7C846.7 7.16489 846 6.56494 844.6 6.56494H840.7V13.365H843.2C844.5 13.365 844.8 12.6649 844.9 11.5649H845.5V16.365H844.9C844.7 15.065 844.5 14.5649 843.1 14.5649H840.7V20.365C840.7 22.565 841.2 22.7649 842.6 22.7649V23.4648H836V22.7649C837.6 22.7649 837.9 22.365 837.9 20.365V7.66504C837.9 6.46504 837.4 5.96484 836 5.96484V5.36499H845C846.6 5.36499 846.9 5.26489 847.2 4.76489H847.8L847.4 8.76489ZM940.4 9.76489V20.0649C940.4 22.2649 940.9 22.7649 942.3 22.7649V23.4648H932.1V22.7649C932.9 22.7649 933.6 22.4648 933.6 21.9648C933.6 21.4648 933.5 20.965 933.3 20.365L932.5 17.865H926.8C926.3 19.165 926 20.465 925.7 21.865C925.7 22.565 926.5 22.7649 927 22.7649V23.4648H922.3V22.7649C923.2 22.7649 923.9 22.665 924.5 20.865L928.9 6.86499C928.7 6.36499 928.2 5.96484 927.7 5.96484V5.36499H931.6L936.3 20.0649C936.7 21.6649 937.2 22.3649 937.9 22.7649C938.9 22.4649 939.2 22.0649 939.2 20.0649V7.66504C938.4 6.66504 938.3 5.96484 936.9 5.96484V5.36499H941.3L948.5 17.665V8.26489C948.5 6.36489 948.1 5.96484 946.6 5.96484V5.36499H956.3V5.96484C955.7 5.96484 955.2 6.26499 955.2 6.86499C955.2 7.36499 955.4 7.76489 955.5 8.26489L958.3 14.165L961 8.36499C961.3 7.86499 961.5 7.26489 961.5 6.76489C961.5 6.26489 961.2 5.96484 960.4 5.96484V5.36499H965V5.96484C963.9 5.96484 963.2 6.96504 962.7 8.16504L959.2 15.365V20.0649C959.2 22.1649 959.7 22.665 961.1 22.665V23.365H954.5V22.665C955.9 22.665 956.4 22.1649 956.4 20.0649V16.0649L952.6 8.06494C951.9 6.46494 951.7 6.16499 951.2 5.86499C950.3 6.16499 950.1 6.76504 950.1 8.16504V21.4648C950.1 21.4648 950.2 22.465 950.3 23.665L949.2 23.7649L940.4 9.76489ZM929.6 8.86499L927.2 16.665H932.2L929.6 8.86499Z" fill="#697279"/>
<path fill-rule="evenodd" clip-rule="evenodd" d="M918.9 16.7649H917.6V20.4648C917.6 22.3648 918.1 22.7649 919.6 22.7649V23.4648H913V22.7649C914.4 22.7649 914.9 22.265 914.9 20.365V8.16504C914.9 6.26504 914.4 5.96484 913 5.96484V5.36499H918C922.8 5.36499 925.7 6.86489 925.7 10.7649C925.6 14.9649 922.2 16.7649 918.9 16.7649ZM918 6.56494H917.6V15.4648H918.4C921.2 15.4648 922.7 14.165 922.7 10.865C922.7 7.56499 921.4 6.56494 918 6.56494ZM888.8 19.9648C885.9 20.0648 883.4 17.765 883.3 14.865C883.3 14.665 883.3 14.465 883.3 14.365C883.2 11.365 885.6 8.76504 888.6 8.66504C888.7 8.66504 888.8 8.66504 888.8 8.66504C891.8 8.66504 894.2 11.0649 894.2 14.0649C894.2 14.1649 894.2 14.265 894.2 14.365C894.3 17.365 891.9 19.9648 888.8 19.9648C888.9 19.9648 888.8 19.9648 888.8 19.9648ZM888.8 9.66504C886.6 9.66504 885.8 11.865 885.8 14.365C885.8 16.665 886.5 19.0649 888.8 19.0649C891 19.0649 891.7 16.765 891.7 14.365C891.7 11.865 890.9 9.66504 888.8 9.66504ZM850.9 18.9648V18.365C851.8 18.365 851.9 18.065 851.9 17.865C851.9 17.565 851.8 17.2648 851.7 16.9648C851.7 16.9648 851.5 16.2649 851.4 15.7649H848L847.7 16.865C847.6 17.165 847.5 17.4649 847.5 17.7649C847.5 18.0649 847.8 18.365 848.4 18.365V18.9648H845V18.365C845.9 18.365 846.2 18.065 846.6 17.165L849.2 9.36499C849.1 8.96499 848.7 8.76489 848.3 8.76489V8.16504H851.1C852 10.965 853 13.6648 853.9 16.4648C854.3 17.9648 854.8 18.365 855.5 18.365V18.9648H850.9ZM849.7 10.665L848.4 14.865H851.1L849.7 10.665Z" fill="#697279"/>
<g clip-path="url(#clip0)">
<path d="M111.321 5C110.027 5 108.08 6.081 108.08 7.511C108.08 8.711 108.92 9.322 110.124 9.322C111.63 9.322 114.008 8.68 114.008 6.84C114.007 5.321 112.616 5 111.321 5ZM36.854 6.066C36.8337 6.06074 36.8124 6.06012 36.7918 6.06418C36.7713 6.06824 36.7518 6.07688 36.735 6.08946C36.7182 6.10204 36.7045 6.11823 36.6948 6.13685C36.6851 6.15546 36.6797 6.17602 36.679 6.197C36.1653 7.24159 35.4325 8.16319 34.5305 8.89901C33.6285 9.63483 32.5785 10.1676 31.452 10.461C31.421 10.4699 31.394 10.4894 31.3758 10.516C31.3575 10.5427 31.3491 10.5748 31.352 10.607V11.95C31.352 12.15 31.452 12.096 31.452 12.096H32.722C32.865 12.096 32.822 12.213 32.822 12.213V20.74C32.822 23.28 33.879 24.595 36.622 24.595C39.065 24.595 39.245 24.535 41.178 23.149C41.178 23.149 41.302 23.106 41.236 22.959C41.183 22.841 40.681 21.659 40.636 21.513C40.582 21.334 40.461 21.44 40.461 21.44C40.1908 21.5934 39.8781 21.6548 39.57 21.615C39.4164 21.6351 39.2603 21.6221 39.1122 21.577C38.9641 21.5318 38.8273 21.4554 38.7111 21.3531C38.5949 21.2507 38.5019 21.1246 38.4384 20.9834C38.3749 20.8421 38.3424 20.6889 38.343 20.534V12.213C38.343 12.213 38.314 12.096 38.474 12.096H40.416C40.416 12.096 40.54 12.158 40.577 11.979C40.62 11.762 40.986 9.949 40.986 9.949C40.986 9.949 41.041 9.818 40.898 9.818H38.445C38.445 9.818 38.345 9.862 38.345 9.701V8.65C38.337 7.92956 38.3949 7.2099 38.518 6.5C38.518 6.5 38.594 6.39 38.418 6.354C38.168 6.308 37.015 6.1 36.854 6.066ZM69.795 7.132C68.169 7.132 67.63 7.57 67.269 8.651C67.269 8.651 67.024 9.361 66.948 9.615C66.894 9.794 66.773 9.746 66.773 9.746C65.7265 9.52032 64.6604 9.39807 63.59 9.381C60.309 9.381 56.873 11.192 56.873 15.397C56.873 18.376 59.324 20.097 61.837 20.537C61.837 20.537 62.237 20.597 61.837 20.712C60.5244 21.3216 59.1552 21.8009 57.749 22.143C57.749 22.143 57.572 22.162 57.661 22.377C57.705 22.482 58.198 23.722 58.274 23.925C58.328 24.068 58.508 24.042 58.508 24.042C59.725 23.9571 60.9474 23.9906 62.158 24.142C62.532 24.189 62.158 24.242 62.158 24.242C60.902 24.456 59.442 25.365 59.442 26.724C59.442 29.089 62.151 29.644 64.801 29.644C66.607 29.644 70.963 28.885 70.963 25.702C70.963 22.519 66.035 21.89 63.619 21.657C63.208 21.618 63.619 21.54 63.619 21.54C67.219 20.649 71.445 19.696 71.445 15.159C71.445 11.742 68.612 10.837 68.612 10.253C68.6063 10.1744 68.6161 10.0954 68.6409 10.0206C68.6657 9.94584 68.705 9.87665 68.7565 9.81703C68.8081 9.75742 68.8708 9.70854 68.9413 9.67318C69.0117 9.63783 69.0884 9.6167 69.167 9.611C69.3325 9.57139 69.5047 9.56878 69.6713 9.60335C69.838 9.63792 69.9949 9.70882 70.131 9.811C70.131 9.811 70.223 9.967 70.277 9.753C70.309 9.626 70.846 7.506 70.877 7.344C70.913 7.144 70.746 7.198 70.746 7.198C70.431 7.168 70.105 7.125 69.797 7.125L69.795 7.132ZM20.237 8.709C20.173 8.728 20.164 8.809 20.164 8.809C20.164 8.809 18.425 13.084 18.353 13.262C18.281 13.44 18.411 13.452 18.411 13.452C18.411 13.452 19.856 13.964 20.017 14.036C20.178 14.108 20.236 13.992 20.236 13.992C20.5989 13.4694 21.0909 13.0495 21.664 12.7732C22.2372 12.4968 22.8721 12.3734 23.507 12.415C24.832 12.415 25.493 12.915 25.493 14.109V14.562C25.493 14.723 25.435 14.737 25.435 14.737L21.361 14.837C18.682 14.837 16.513 16.765 16.513 20.152C16.513 22.868 18.563 24.591 21.302 24.591C22.8103 24.5433 24.2532 23.9643 25.376 22.956C25.376 22.956 25.57 22.656 25.624 22.956C25.678 23.256 25.792 23.656 25.872 23.993C25.914 24.17 26.033 24.154 26.033 24.154H31.742C31.742 24.154 31.961 24.226 31.961 23.993V22.565C31.961 22.565 32.004 22.404 31.771 22.404H31.114C30.971 22.404 30.997 22.141 30.997 22.141V14.228C30.997 10.782 28.776 9.38 25.405 9.38C24.224 9.36199 23.05 9.56551 21.944 9.98C21.944 9.98 21.699 10.13 21.844 9.79C21.912 9.628 21.975 9.44 21.975 9.44C21.9856 9.41831 21.9914 9.39458 21.9921 9.37044C21.9927 9.34629 21.9881 9.3223 21.9786 9.30009C21.9691 9.27788 21.9549 9.25798 21.9371 9.24174C21.9192 9.22551 21.898 9.21331 21.875 9.206C21.675 9.134 20.54 8.789 20.327 8.706C20.2985 8.69585 20.2675 8.69585 20.239 8.706L20.237 8.709ZM45.074 8.709C45.01 8.728 45.001 8.809 45.001 8.809C45.001 8.809 43.262 13.084 43.19 13.262C43.118 13.44 43.248 13.452 43.248 13.452C43.248 13.452 44.693 13.965 44.854 14.036C45.015 14.107 45.073 13.992 45.073 13.992C45.4326 13.4696 45.9218 13.0497 46.4926 12.7732C47.0634 12.4968 47.6962 12.3733 48.329 12.415C49.654 12.415 50.315 12.915 50.315 14.109V14.562C50.315 14.723 50.271 14.737 50.271 14.737L46.197 14.837C43.517 14.837 41.349 16.764 41.349 20.152C41.349 22.867 43.398 24.591 46.138 24.591C47.6424 24.5452 49.0817 23.9673 50.2 22.96C50.2 22.96 50.408 22.66 50.463 22.96C50.518 23.26 50.63 23.66 50.711 23.997C50.753 24.175 50.872 24.158 50.872 24.158H56.567C56.567 24.158 56.801 24.23 56.801 23.997V22.565C56.801 22.565 56.844 22.404 56.611 22.404H55.954C55.811 22.404 55.837 22.141 55.837 22.141V14.228C55.837 10.782 53.602 9.38 50.23 9.38C49.0539 9.36216 47.8849 9.5657 46.784 9.98C46.784 9.98 46.539 10.13 46.684 9.79C46.7314 9.67117 46.7705 9.54922 46.801 9.425C46.8115 9.40437 46.8171 9.38165 46.8176 9.35852C46.8181 9.3354 46.8133 9.31247 46.8037 9.29143C46.7941 9.27039 46.7799 9.25179 46.7621 9.237C46.7443 9.22221 46.7234 9.21161 46.701 9.206C46.501 9.135 45.38 8.789 45.168 8.706C45.1395 8.69585 45.1085 8.69585 45.08 8.706L45.074 8.709ZM118.504 8.709C118.44 8.728 118.431 8.809 118.431 8.809C118.431 8.809 116.692 13.084 116.62 13.262C116.548 13.44 116.678 13.452 116.678 13.452C116.678 13.452 118.123 13.965 118.284 14.036C118.445 14.107 118.503 13.992 118.503 13.992C118.863 13.4697 119.352 13.0498 119.923 12.7733C120.493 12.4969 121.126 12.3734 121.759 12.415C123.084 12.415 123.745 12.915 123.745 14.109V14.562C123.745 14.723 123.701 14.737 123.701 14.737L119.627 14.837C116.947 14.837 114.779 16.764 114.779 20.152C114.779 22.867 116.828 24.591 119.568 24.591C121.072 24.5434 122.51 23.9641 123.627 22.956C123.627 22.956 123.836 22.656 123.89 22.956C123.944 23.256 124.057 23.656 124.138 23.993C124.18 24.171 124.299 24.154 124.299 24.154H130C130 24.154 130.234 24.226 130.234 23.993V22.565C130.234 22.565 130.277 22.404 130.044 22.404H129.387C129.244 22.404 129.27 22.141 129.27 22.141V14.228C129.27 10.782 127.035 9.38 123.663 9.38C122.487 9.36216 121.318 9.5657 120.217 9.98C120.217 9.98 119.971 10.13 120.117 9.79C120.164 9.67106 120.203 9.54913 120.234 9.425C120.244 9.40437 120.25 9.38165 120.251 9.35852C120.251 9.3354 120.246 9.31247 120.237 9.29143C120.227 9.27039 120.213 9.25179 120.195 9.237C120.177 9.22221 120.156 9.21161 120.134 9.206C119.934 9.135 118.813 8.789 118.601 8.706C118.573 8.69585 118.541 8.69585 118.513 8.706L118.504 8.709ZM80.527 9.38C75.741 9.38 72.044 12.27 72.044 16.973C72.044 21.703 75.744 24.595 80.527 24.595C85.344 24.595 89.054 21.703 89.054 16.973C89.054 12.271 85.344 9.38 80.527 9.38ZM100.735 9.38C98.723 9.38 97.214 10.497 95.727 11.629C95.727 11.629 95.581 11.829 95.581 11.6V9.5C95.581 9.339 95.435 9.427 95.435 9.427L89.083 11.1C89.083 11.1 88.952 11.1 88.952 11.261V12.721C88.952 12.882 89.098 12.809 89.098 12.809C89.098 12.809 89.657 12.676 89.872 12.609C90.087 12.542 90.018 12.709 90.018 12.709V22.273C90.023 22.2884 90.0243 22.3048 90.0216 22.3208C90.0189 22.3368 90.0123 22.3519 90.0025 22.3648C89.9926 22.3777 89.9798 22.388 89.9651 22.3948C89.9504 22.4017 89.9342 22.4048 89.918 22.404H89.056C89.056 22.404 88.956 22.357 88.956 22.535V24.01C88.956 24.21 89.056 24.156 89.056 24.156H96.59C96.59 24.156 96.69 24.179 96.69 24.056V22.536C96.69 22.357 96.544 22.405 96.544 22.405H95.639C95.496 22.405 95.522 22.305 95.522 22.305V14.213C95.5217 14.1714 95.5305 14.1303 95.5477 14.0924C95.565 14.0546 95.5904 14.021 95.622 13.994C96.2464 13.345 97.0887 12.9496 97.987 12.884C98.799 12.884 99.579 13.323 99.579 14.169V22.3C99.579 22.3 99.62 22.4 99.479 22.4H98.6C98.6 22.4 98.439 22.388 98.439 22.531V24.05C98.439 24.176 98.57 24.15 98.57 24.15H105.97C105.97 24.15 106.116 24.201 106.116 24.004V22.536C106.116 22.375 105.985 22.405 105.985 22.405H105.2C105.075 22.405 105.1 22.259 105.1 22.259V13.527C105.1 11.92 104.559 9.38 100.735 9.38ZM10.353 9.395C9.03983 9.47412 7.77737 9.93036 6.717 10.709C6.717 10.709 6.571 10.779 6.571 10.636V9.536C6.57388 9.51726 6.57177 9.49808 6.56488 9.48041C6.558 9.46274 6.54659 9.4472 6.53179 9.43534C6.51699 9.42348 6.49933 9.41573 6.48058 9.41286C6.46184 9.40999 6.44267 9.41211 6.425 9.419L0.131 11.045C0.131 11.045 0 11.045 0 11.206V12.666C0 12.866 0.146 12.797 0.146 12.797L0.876 12.622C0.876 12.622 1.051 12.542 1.051 12.739V26.739C1.05236 26.7648 1.04845 26.7906 1.03951 26.8148C1.03057 26.839 1.01679 26.8611 0.999013 26.8799C0.981233 26.8986 0.959825 26.9135 0.936096 26.9236C0.912367 26.9338 0.886815 26.939 0.861 26.939H0.175C0.175 26.939 0 26.921 0 27.136V28.509C0 28.709 0.234 28.699 0.234 28.699H8.367C8.367 28.699 8.528 28.638 8.528 28.499V27.136C8.53073 27.1117 8.5282 27.087 8.52059 27.0637C8.51297 27.0405 8.50044 27.0191 8.48385 27.0011C8.46725 26.9831 8.44698 26.9688 8.42441 26.9593C8.40183 26.9498 8.37748 26.9453 8.353 26.946H6.746C6.567 26.946 6.571 26.698 6.571 26.698V24.172C6.571 24.029 6.688 24.084 6.688 24.084C7.57227 24.4599 8.5276 24.6394 9.488 24.61C13.944 24.61 16.526 20.492 16.526 16.375C16.529 12.2 13.816 9.395 10.353 9.395ZM113.687 9.41C113.662 9.40915 113.637 9.41429 113.614 9.425L107.292 11.163C107.276 11.1639 107.26 11.168 107.245 11.1751C107.23 11.1821 107.217 11.192 107.206 11.2042C107.195 11.2164 107.187 11.2306 107.182 11.246C107.176 11.2614 107.174 11.2777 107.175 11.294V12.709C107.175 12.909 107.35 12.826 107.35 12.826C107.35 12.826 107.764 12.737 108.124 12.68C108.304 12.65 108.255 12.818 108.255 12.943V22.259C108.255 22.259 108.303 22.405 108.124 22.405H107.233C107.233 22.405 107.116 22.354 107.116 22.551V24.04C107.116 24.219 107.233 24.157 107.233 24.157H114.633C114.812 24.157 114.75 24.011 114.75 24.011C114.75 24.011 114.75 22.783 114.75 22.551C114.75 22.351 114.619 22.405 114.619 22.405H113.889C113.71 22.405 113.758 22.274 113.758 22.274V9.526C113.758 9.436 113.721 9.412 113.685 9.409L113.687 9.41ZM63.355 11.22C65.614 11.22 66.538 15.629 66.538 17.207C66.538 18.607 66.089 19.164 64.976 19.164C62.718 19.164 61.776 14.754 61.776 13.177C61.778 11.774 62.242 11.22 63.355 11.22ZM79.592 11.6C82.633 11.6 83.549 16.974 83.549 19.076C83.549 20.653 83.116 22.376 81.49 22.376C78.449 22.376 77.548 17.002 77.548 14.9C77.548 13.819 77.543 11.6 79.592 11.6ZM7.432 12.49C8.365 12.49 11.024 12.753 11.024 18.009C11.024 21.28 10.231 22.389 8.424 22.389C6.979 22.389 6.57 21.309 6.57 20.024V12.855C6.56729 12.802 6.58139 12.7494 6.61031 12.7049C6.63922 12.6604 6.68146 12.6261 6.731 12.607L7.432 12.49ZM24.618 16.59H25.348C25.527 16.59 25.494 16.707 25.494 16.707V19.4C25.494 20.51 25.214 21.532 23.829 21.532C22.353 21.532 22.029 20.247 22.029 19.108C22.0181 18.7684 22.0781 18.4303 22.2054 18.1153C22.3326 17.8003 22.5242 17.5153 22.7679 17.2785C23.0116 17.0418 23.302 16.8586 23.6206 16.7405C23.9392 16.6225 24.2789 16.5722 24.618 16.593V16.59ZM49.455 16.59H50.185C50.364 16.59 50.316 16.707 50.316 16.707V19.4C50.316 20.51 50.051 21.532 48.666 21.532C47.191 21.532 46.855 20.248 46.855 19.108C46.8459 18.768 46.9077 18.4298 47.0362 18.1149C47.1648 17.8 47.3575 17.5153 47.602 17.2788C47.8464 17.0423 48.1374 16.8592 48.4564 16.7411C48.7754 16.6231 49.1155 16.5726 49.455 16.593V16.59ZM122.885 16.59H123.615C123.794 16.59 123.746 16.707 123.746 16.707V19.4C123.746 20.51 123.481 21.532 122.096 21.532C120.621 21.532 120.285 20.248 120.285 19.108C120.276 18.768 120.338 18.4298 120.466 18.1149C120.595 17.8 120.787 17.5153 121.032 17.2788C121.276 17.0423 121.567 16.8592 121.886 16.7411C122.205 16.6231 122.545 16.5726 122.885 16.593V16.59ZM64.29 24.8C64.3103 24.7998 64.3303 24.805 64.348 24.815C65.34 25.415 66.056 25.874 66.056 27.166C66.056 27.895 65.67 28.246 64.917 28.246C64.7344 28.2314 64.5565 28.1801 64.3942 28.095C64.2319 28.01 64.0885 27.893 63.9726 27.7511C63.8567 27.6092 63.7706 27.4454 63.7197 27.2694C63.6687 27.0934 63.6538 26.9089 63.676 26.727C63.6697 26.0853 63.8255 25.4524 64.129 24.887C64.1484 24.8622 64.1728 24.8415 64.2004 24.8264C64.2281 24.8113 64.2586 24.8029 64.29 24.8Z" fill="#697279"/>
<path d="M130.92 7.57004C130.775 7.50866 130.617 7.48195 130.459 7.49204H130.134V8.24704H130.479C130.602 8.2523 130.725 8.23675 130.842 8.20104C130.91 8.17918 130.969 8.13527 131.009 8.07624C131.05 8.01721 131.069 7.94642 131.065 7.87504C131.072 7.81657 131.061 7.75749 131.036 7.70447C131.011 7.65145 130.971 7.60661 130.921 7.57503L130.92 7.57004ZM130.521 7.23404C130.717 7.22432 130.913 7.25007 131.099 7.31003C131.204 7.35186 131.293 7.42658 131.352 7.52301C131.411 7.61943 131.438 7.7324 131.427 7.84504C131.433 7.92629 131.417 8.00757 131.381 8.08062C131.345 8.15368 131.29 8.21592 131.222 8.26104C131.13 8.31427 131.028 8.34829 130.922 8.36104C130.993 8.36816 131.061 8.39022 131.122 8.42573C131.184 8.46125 131.237 8.50942 131.278 8.56703C131.348 8.66175 131.387 8.77543 131.391 8.89304V9.04703C131.391 9.09504 131.391 9.14704 131.397 9.20404C131.397 9.2413 131.404 9.27826 131.417 9.31304L131.431 9.33904H131.083L131.078 9.31803C131.078 9.31103 131.078 9.30304 131.073 9.29504L131.06 9.22704V9.05904C131.073 8.96829 131.061 8.87572 131.026 8.79107C130.991 8.70643 130.934 8.63283 130.86 8.57804C130.727 8.52339 130.582 8.50046 130.438 8.51104H130.138V9.33803H129.781V7.22704H130.521V7.23404ZM129.389 7.13404C129.233 7.28498 129.11 7.46636 129.027 7.66692C128.944 7.86749 128.903 8.08297 128.906 8.30004C128.906 8.7387 129.08 9.1594 129.391 9.46959C129.701 9.77977 130.121 9.95404 130.56 9.95404C130.999 9.95404 131.419 9.77977 131.73 9.46959C132.04 9.1594 132.214 8.7387 132.214 8.30004C132.215 7.97232 132.118 7.65178 131.937 7.37904C131.755 7.1063 131.496 6.89363 131.194 6.768C130.891 6.64237 130.558 6.60942 130.236 6.67334C129.915 6.73726 129.62 6.89516 129.388 7.12704L129.389 7.13404ZM131.913 9.64904C131.645 9.91879 131.304 10.1027 130.931 10.1774C130.558 10.2521 130.172 10.2141 129.821 10.0683C129.47 9.9225 129.171 9.67551 128.961 9.3588C128.751 9.04209 128.64 8.67002 128.642 8.29004C128.642 7.78175 128.844 7.29428 129.203 6.93486C129.563 6.57545 130.05 6.37354 130.559 6.37354C131.067 6.37354 131.554 6.57545 131.914 6.93486C132.273 7.29428 132.475 7.78175 132.475 8.29004C132.479 8.54292 132.431 8.79395 132.335 9.02768C132.238 9.2614 132.095 9.47286 131.913 9.64904Z" fill="#231F20"/>
</g>
<g clip-path="url(#clip1)">
<path d="M231.821 16.7297C231.821 10.1184 234.211 5.95025 237.064 5.50933C234.211 1.91988 229.445 0 225.118 0C220.352 0 216.072 2.11787 213.124 5.4795C215.937 6.051 216.893 8.46797 216.893 12.2064H213.452C213.452 9.99887 213.003 8.85604 211.726 8.85604C211.153 8.85604 210.708 9.15496 210.445 9.66292C210.409 9.74507 210.368 9.83108 210.332 9.91691C210.233 10.2011 210.179 10.5295 210.179 10.8918C210.179 15.4636 217.513 15.2358 217.513 22.2652C217.513 25.007 215.459 27.5653 213.146 27.5653C216.185 30.9643 220.338 33 225.118 33C229.766 33 233.952 30.9866 236.893 27.7633C234.182 27.0647 231.821 23.0715 231.821 16.7297ZM230.288 27.6214H226.599V18.2315H222.614V27.6214H218.918V5.95026H222.607V14.6792H226.599V5.95026H230.288V27.6214Z" fill="#697279"/>
<path d="M212.186 24.1721C213.215 24.1721 213.945 23.2459 213.945 21.8973C213.945 19.0999 211.558 18.5621 209.001 16.1978C208.964 20.9827 210.413 24.1721 212.186 24.1721Z" fill="#697279"/>
<path d="M235.487 16.38C235.487 12.7309 236.523 9.08154 238.417 9.08154C240.668 9.08154 241.238 14.7216 241.238 16.503C241.238 20.4137 240.034 23.9396 238.417 23.9396C236.476 23.94 235.487 20.2238 235.487 16.38Z" fill="#697279"/>
<path d="M272.329 6.25098H269.446H259.466H259.003H256.777L255.303 18.6294H255.245L253.595 6.25098H250.212L248.421 18.6294H248.363L247.031 6.25098H243.619L246.367 27.3322H249.662L251.515 13.9793H251.57L253.366 27.3322H256.777L259.054 9.50817H262.243V27.3322H266.005V9.50817H269.446V27.3322H273.208V6.25098H272.329Z" fill="#697279"/>
<path d="M275.054 6.25098H280.06L281.735 17.0567H281.793L283.559 6.25098H288.445V27.3322H285.092V11.8763H285.033L282.487 27.3322H280.407L277.889 11.8763H277.834V27.3322H275.054L275.054 6.25098Z" fill="#697279"/>
<path d="M290.294 6.25098H298.799V9.50817H294.056V14.8943H297.551V18.3307H294.056V24.0749H299V27.3322H290.293V6.25098H290.294Z" fill="#697279"/>
</g>
<path d="M757.321 7.27516C756.493 7.27516 755.821 6.62953 755.821 5.83266C755.821 5.04017 756.493 4.39453 757.321 4.39453C758.145 4.39453 758.817 5.04017 758.817 5.83266C758.817 6.62991 758.145 7.27516 757.321 7.27516ZM757.321 4.61999C756.62 4.61999 756.055 5.16387 756.055 5.83305C756.055 6.50662 756.62 7.05052 757.321 7.05052C758.018 7.05052 758.584 6.50662 758.584 5.83305C758.584 5.16387 758.018 4.61999 757.321 4.61999V4.61999ZM757.704 6.66504L757.175 5.9799H756.991V6.66504H756.693V5.00785H757.314C757.762 5.00785 757.96 5.14911 757.96 5.47552C757.96 5.74886 757.788 5.93122 757.496 5.95915L758.073 6.66504H757.704ZM757.554 5.26842C757.499 5.24328 757.412 5.23011 757.27 5.23011H756.991V5.77998H757.27C757.536 5.77998 757.663 5.68581 757.663 5.4831C757.663 5.38733 757.62 5.29914 757.554 5.26842V5.26842Z" fill="#697279"/>
<path d="M723.719 10.4097L720.907 18.6965L718.068 10.4097H714.401L715.724 13.8637L714.085 18.6965L711.246 10.4097H707.577L712.717 23.8189H715.45L717.512 18.5273L719.541 23.8189H722.274L727.386 10.4097H723.719Z" fill="#697279"/>
<path d="M746.092 23.8181C743.188 23.8181 741.967 21.8612 741.967 19.9323V4.39697L745.494 4.39698V19.7116C745.494 20.52 745.847 20.9378 746.743 20.9378H748.099V23.8181H746.092Z" fill="#697279"/>
<path d="M753.918 23.8181C751.014 23.8181 749.794 21.8612 749.794 19.9323V4.39697L753.32 4.39698V19.7116C753.32 20.52 753.674 20.9378 754.57 20.9378H755.926V23.8181H753.918Z" fill="#697279"/>
<path d="M738.117 20.9356H734.207C732.216 20.9356 731.098 19.6508 731.098 17.895H739.822V16.3747C739.822 12.6269 737.752 9.84961 733.798 9.84961C730.116 9.84961 727.608 12.3652 727.608 16.8204C727.608 22.3486 730.826 23.8175 734.179 23.8175H738.117V20.9356ZM731.425 14.0942C731.808 13.2825 732.599 12.68 733.798 12.68C734.998 12.68 735.789 13.2829 736.171 14.0942C736.39 14.5926 736.471 14.9589 736.497 15.5614H731.098C731.126 14.9589 731.207 14.593 731.425 14.0942Z" fill="#697279"/>
<path d="M702.837 15.2428C701.942 14.3828 700.038 13.2101 697.017 11.657C696.277 11.2788 695.819 10.9747 695.531 10.6706C695.225 10.347 695.088 10.0054 695.088 9.5637C695.088 9.00465 695.39 8.33427 695.915 7.93441C696.47 7.51263 697.238 7.28039 698.08 7.28039H701.047L701.043 4.39697H698.169C695.918 4.39697 694.743 4.69545 693.335 5.6252C692.728 6.041 692.238 6.51068 691.919 6.98311C691.452 7.68703 691.172 8.75924 691.172 9.6491C691.172 10.6842 691.46 11.4783 692.106 12.2245C692.769 12.9898 693.856 13.7659 695.629 14.7412L698.643 16.3876C699.938 17.0839 700.421 17.6589 700.421 18.5089C700.421 19.1062 700.122 19.8129 699.601 20.2387C699.052 20.6876 698.291 20.9346 697.46 20.9346H691.174V23.8185H697.4C698.455 23.8185 699.416 23.6995 700.256 23.4645C701.081 23.2339 701.792 22.8911 702.367 22.4462C702.941 22.0028 703.381 21.3365 703.677 20.7024C703.979 20.0575 704.131 19.3197 704.131 18.5089C704.131 17.2427 703.647 16.0217 702.837 15.2428V15.2428Z" fill="#697279"/>
<path d="M708.121 5.55301C707.974 4.09094 706.622 3.01953 705.1 3.16039C703.579 3.30285 702.464 4.60091 702.611 6.06298C702.693 6.87979 703.16 7.56296 703.806 8.00189C704.057 8.17349 704.218 8.454 704.218 8.77244C704.218 8.96716 704.162 9.14872 704.057 9.29877C703.559 10.011 703.691 10.4093 704.306 10.4093C706.668 10.4089 708.346 7.80997 708.121 5.55301ZM705.978 6.06737C705.394 6.06737 704.919 5.61247 704.919 5.05302C704.919 4.49038 705.394 4.03428 705.978 4.03428C706.562 4.03428 707.035 4.49078 707.035 5.05302C707.035 5.61247 706.562 6.06737 705.978 6.06737Z" fill="#697279"/>
<defs>
<clipPath id="clip0">
<rect width="132.475" height="24.647" fill="white" transform="translate(0 5)"/>
</clipPath>
<clipPath id="clip1">
<rect width="90" height="33" fill="white" transform="translate(209)"/>
</clipPath>
</defs>
</svg>
