<svg width="35" height="29" viewBox="0 0 35 29" fill="none" xmlns="http://www.w3.org/2000/svg">
<path d="M3.0249 0.171143C1.41717 0.171143 0.109863 1.43228 0.109863 2.98321V25.8815C0.109863 27.2099 1.23144 28.2918 2.60847 28.2918H31.7588C33.1359 28.2918 34.2575 27.2099 34.2575 25.8815V7.40218C34.2575 6.0738 33.1359 4.99184 31.7588 4.99184H29.2602V0.572867C29.2602 0.362524 29.0619 0.171183 28.8438 0.171143H3.0249ZM3.0249 0.974591H28.4274V4.99184C20.5151 4.99184 10.9371 4.99184 3.0249 4.99184C1.86417 4.99184 0.942731 4.10294 0.942731 2.98321C0.942731 1.86349 1.86417 0.974591 3.0249 0.974591ZM0.942731 4.94162C1.47239 5.46531 2.20811 5.79528 3.0249 5.79528C12.0477 5.79528 22.7361 5.79528 31.7588 5.79528C32.6889 5.79528 33.4246 6.50501 33.4246 7.40218V11.8211H21.7644C20.8488 11.8211 20.0987 12.5448 20.0987 13.428V19.8556C20.0987 20.7389 20.8488 21.4625 21.7644 21.4625H33.4246V25.8815C33.4246 26.7787 32.6889 27.4884 31.7588 27.4884H2.60847C1.67845 27.4884 0.942731 26.7787 0.942731 25.8815V4.94162ZM21.7644 12.6246H33.4246V20.6591H21.7644C21.2958 20.6591 20.9316 20.3077 20.9316 19.8556V13.428C20.9316 12.976 21.2958 12.6246 21.7644 12.6246ZM25.0959 15.0224C24.1809 15.0224 23.4302 15.7466 23.4302 16.6293C23.4302 17.512 24.1809 18.2362 25.0959 18.2362C26.0109 18.2362 26.7616 17.512 26.7616 16.6293C26.7616 15.7466 26.0109 15.0224 25.0959 15.0224ZM25.0959 15.8259C25.5608 15.8259 25.9288 16.1808 25.9288 16.6293C25.9288 17.0778 25.5608 17.4328 25.0959 17.4328C24.631 17.4328 24.263 17.0778 24.263 16.6293C24.263 16.1808 24.631 15.8259 25.0959 15.8259Z" fill="#433CB7"/>
<path d="M27.6812 16.632C27.6812 20.5044 24.4218 23.6741 20.3628 23.6741C16.3038 23.6741 13.0445 20.5044 13.0445 16.632C13.0445 12.7596 16.3038 9.58987 20.3628 9.58987C24.4218 9.58987 27.6812 12.7596 27.6812 16.632Z" fill="white" stroke="#433CB7" stroke-width="1.00494"/>
<g clip-path="url(#clip0)">
<path fill-rule="evenodd" clip-rule="evenodd" d="M24.6056 13.9291C23.623 13.0002 21.9997 13.0002 21.0171 13.9291L20.419 14.4945L19.821 13.9291C18.8384 13.0002 17.2151 13.0002 16.2325 13.9291C15.25 14.858 15.25 16.3927 16.2325 17.3216L16.8306 17.887L20.419 21.2794L24.0075 17.887L24.6056 17.3216C25.5881 16.3927 25.5881 14.8984 24.6056 13.9291ZM22.8541 17.9274L20.4618 20.189L18.0695 17.9274L16.8733 16.7965C16.2325 16.1503 16.2325 15.1407 16.8733 14.5349C17.5141 13.8887 18.5821 13.8887 19.2656 14.5349L20.4618 15.6657L21.6579 14.5349C22.2987 13.8887 23.3667 13.8887 24.0502 14.5349C24.691 15.1811 24.691 16.1907 24.0502 16.7965L22.8541 17.9274Z" fill="#433CB7"/>
</g>
<defs>
<clipPath id="clip0">
<rect width="9.84688" height="8.31168" fill="white" transform="translate(15.4956 13.2324)"/>
</clipPath>
</defs>
</svg>
