<svg width="45" height="9" viewBox="0 0 45 9" fill="none" xmlns="http://www.w3.org/2000/svg">
<path d="M11.9673 4.03709C11.0751 2.37139 10.0435 0.451588 7.93139 0.441785C5.81928 0.431982 4.79529 2.31408 3.85685 3.99945C3.00366 5.5444 2.20724 7.00513 0.771009 6.99846C0.461236 6.99702 0.234576 7.24943 0.233057 7.53104C0.231386 7.84082 0.483624 8.06728 0.765238 8.06859C2.87734 8.07839 3.90133 6.19629 4.83977 4.51093C5.69297 2.96598 6.48938 1.50525 7.92562 1.51191C9.39001 1.51871 10.1706 2.98676 10.979 4.53942C11.8712 6.20512 12.9028 8.12492 15.0149 8.13473C17.127 8.14453 18.151 6.26243 19.0894 4.57706C19.9426 3.03211 20.7391 1.57138 22.1753 1.57805C23.6397 1.58485 24.4203 3.05289 25.2286 4.60556C26.1207 6.29942 27.1525 8.19106 29.2646 8.20086C31.3767 8.21067 32.4007 6.32856 33.3391 4.6432C34.1923 3.09825 34.9887 1.63752 36.425 1.64419C37.8612 1.65085 38.67 3.11903 39.4783 4.67169C40.3704 6.36555 41.4021 8.2572 43.5143 8.267C43.824 8.26844 44.0507 8.01603 44.0522 7.73442C44.082 7.42477 43.8298 7.19831 43.52 7.19687C42.0556 7.19007 41.275 5.72203 40.4667 4.16936C39.5746 2.4755 38.5428 0.58386 36.4589 0.574188C34.3749 0.564516 33.3228 2.44649 32.3844 4.13185C31.5312 5.6768 30.7347 7.13753 29.2704 7.13073C27.806 7.12394 27.0253 5.65589 26.217 4.10323C25.325 2.40937 24.2932 0.517724 22.1811 0.507921C20.069 0.498119 19.045 2.38022 18.1065 4.06558C17.2533 5.61053 16.4569 7.07126 15.0207 7.0646C13.5844 7.05793 12.8038 5.58988 11.9673 4.03709Z" fill="#697279"/>
</svg>
