<svg id="Layer_1" data-name="Layer 1" xmlns="http://www.w3.org/2000/svg" viewBox="0 0 50 50"><defs><style>.cls-1{fill:#bc2026;}.cls-2{fill:#fff;}</style></defs><title>img--footer__pin</title><circle class="cls-1" cx="25" cy="25" r="22.98"/><path class="cls-2" d="M25,12.14a12.9,12.9,0,0,0-4.7,24.92,12.11,12.11,0,0,1,0-3.7c.24-1,1.51-6.42,1.51-6.42A4.69,4.69,0,0,1,21.47,25c0-1.8,1-3.14,2.33-3.14a1.62,1.62,0,0,1,1.64,1.82c0,1.11-.71,2.76-1.07,4.3a1.87,1.87,0,0,0,1.91,2.33c2.29,0,4.06-2.42,4.06-5.91A5.09,5.09,0,0,0,25,19.18a5.58,5.58,0,0,0-5.83,5.6,5.06,5.06,0,0,0,1,2.95.4.4,0,0,1,.09.37c-.1.4-.32,1.28-.36,1.46s-.19.29-.43.17c-1.61-.75-2.62-3.11-2.62-5,0-4.07,3-7.81,8.53-7.81,4.47,0,8,3.19,8,7.46,0,4.44-2.8,8-6.7,8a3.45,3.45,0,0,1-2.95-1.48L22.78,34a14.46,14.46,0,0,1-1.6,3.38A12.71,12.71,0,0,0,25,38a12.91,12.91,0,1,0,0-25.81Z"/><path class="cls-2" d="M10.57,11.92l.77-.65.3.36h0a1.09,1.09,0,0,1,.39-1.08,1,1,0,0,1,1.08-.16h0a1.16,1.16,0,0,1,.42-1.11,1.09,1.09,0,0,1,1.66.23l1.39,1.63-.8.68-1.27-1.49c-.23-.27-.47-.33-.71-.13s-.22.55,0,.85l1.2,1.41-.8.68L13,11.63c-.23-.27-.47-.34-.72-.13s-.21.55,0,.85l1.2,1.41-.8.68Z"/><path class="cls-2" d="M16.46,10.28c-.3-.66.13-1.1.72-1.47s.7-.47.61-.68-.27-.26-.56-.13-.4.34-.31.61L16,9c-.23-.57,0-1.24.89-1.65A1.65,1.65,0,0,1,18,7.16a1.1,1.1,0,0,1,.78.68l.69,1.51c.11.24.19.36.3.38l0,0-.93.42a.84.84,0,0,1-.25-.29h0a1.09,1.09,0,0,1-.7.82A1,1,0,0,1,16.46,10.28Zm1.83-1.12-.17-.35a2.33,2.33,0,0,1-.42.38c-.33.25-.44.41-.33.64s.33.26.56.15A.61.61,0,0,0,18.29,9.16Z"/><path class="cls-2" d="M19.21,6.55l1-.25.13.5h0A1,1,0,0,1,21.06,6a.44.44,0,0,1,.21,0l.22.88h0a.84.84,0,0,0-.79,1.18l.37,1.43-1,.26Z"/><path class="cls-2" d="M21.69,4.59l1-.09.21,2.42.88-1.2L25,5.62,24,7l1.46,2L24.22,9l-.91-1.28L23,8.08l.08,1-1,.09Z"/><path class="cls-2" d="M25.24,7.26a1.66,1.66,0,0,1,1.87-1.55,1.62,1.62,0,0,1,1.08.53,2.1,2.1,0,0,1,.4,1.66l-2.36-.26a.73.73,0,0,0,.66.8.54.54,0,0,0,.58-.27l1,.11a1.35,1.35,0,0,1-.64.72,1.77,1.77,0,0,1-1.05.19A1.67,1.67,0,0,1,25.24,7.26Zm2.36-.1a.65.65,0,0,0-.55-.71.67.67,0,0,0-.74.57Z"/><path class="cls-2" d="M28.9,8.56l.47-1.71L29,6.74l.17-.64.42.12.28-1,1,.28-.28,1,.58.16-.18.63-.57-.15-.42,1.49c-.06.24.06.34.27.4l.23.06-.21.74a2.72,2.72,0,0,1-.56-.1C29.08,9.55,28.71,9.24,28.9,8.56Z"/><path class="cls-2" d="M31.72,6.89l1,.39-1.23,3.06-1-.39Zm1.34-.37a.56.56,0,0,1-.75.3.56.56,0,1,1,.75-.3Z"/><path class="cls-2" d="M33.46,7.57l.87.51-.23.39h0a1.17,1.17,0,0,1,1.16,0,1.12,1.12,0,0,1,.34,1.66L34.53,12l-.9-.54,1-1.66a.51.51,0,0,0-.14-.77.61.61,0,0,0-.85.3l-.93,1.57-.91-.53Z"/><path class="cls-2" d="M34.61,12.18l.74.69a.54.54,0,0,0,.21.63.56.56,0,0,0,.89,0l.22-.24,0,0a1,1,0,0,1-.87-.3,1.44,1.44,0,0,1,0-2.12,1.47,1.47,0,0,1,2.14-.26,1,1,0,0,1,.37,1h0l.24-.26.74.68-2,2.18a1.42,1.42,0,0,1-1.07.51,1.79,1.79,0,0,1-1.14-.56C34.4,13.44,34.21,12.75,34.61,12.18Zm2.93.18a.72.72,0,0,0,.06-1.06c-.28-.26-.69-.2-1,.17a.7.7,0,0,0-.08,1C36.82,12.82,37.22,12.7,37.54,12.36Z"/><path class="cls-2" d="M14.09,38.11l.84.55L14.7,39l0,0a1.18,1.18,0,0,1,1.11.13A1.53,1.53,0,0,1,16,41.38a1.52,1.52,0,0,1-2.16.67,1.11,1.11,0,0,1-.54-.89h0l-.79,1.19-.87-.57Zm1,2.71c.32-.47.34-.9,0-1.15s-.8,0-1.1.41-.28.89.1,1.14S14.82,41.29,15.13,40.82Z"/><path class="cls-2" d="M16,42.18c.28-.67.9-.66,1.56-.48s.83.18.92,0,0-.38-.29-.5-.52-.06-.65.19l-.9-.37c.26-.55.89-.86,1.82-.48a1.73,1.73,0,0,1,.88.65,1.1,1.1,0,0,1,0,1l-.63,1.54c-.1.24-.13.39-.07.48l0,0-.94-.38a.92.92,0,0,1,0-.38h0a1.07,1.07,0,0,1-1.07,0A1,1,0,0,1,16,42.18Zm2.07.57.15-.37a2.41,2.41,0,0,1-.57,0c-.41-.07-.6,0-.7.19s0,.42.28.51A.6.6,0,0,0,18.11,42.75Z"/><path class="cls-2" d="M20.16,41.22l1,.23L21,42h0a1,1,0,0,1,1-.35.5.5,0,0,1,.19.07l-.2.88h0a.84.84,0,0,0-1.24.68l-.33,1.44-1-.23Z"/><path class="cls-2" d="M22.71,44.18l.15-1.76-.44,0,.06-.65.43,0,.09-1,1,.08-.09,1,.6,0-.05.66-.6-.05-.13,1.54c0,.25.11.33.34.35h.23l-.06.76a2.47,2.47,0,0,1-.58,0C23.07,45.13,22.65,44.89,22.71,44.18Z"/><path class="cls-2" d="M24.76,42l1-.08,0,.45h0a1.15,1.15,0,0,1,1-.62A1.12,1.12,0,0,1,28,42.85L28.19,45l-1,.08L27,43.15c0-.35-.22-.58-.56-.55s-.55.33-.52.74l.13,1.82-1,.08Z"/><path class="cls-2" d="M28.36,43.3a1.66,1.66,0,0,1,1.18-2.12,1.58,1.58,0,0,1,1.2.1,2.08,2.08,0,0,1,1,1.39l-2.29.63a.74.74,0,0,0,.91.5.56.56,0,0,0,.44-.46l1-.27a1.35,1.35,0,0,1-.33.89,1.75,1.75,0,0,1-.92.57A1.68,1.68,0,0,1,28.36,43.3Zm2.17-.95a.64.64,0,0,0-.77-.46.67.67,0,0,0-.49.8Z"/><path class="cls-2" d="M31.32,40.72l.91-.42.22.47h0a1,1,0,0,1,.59-.89.45.45,0,0,1,.19-.06l.38.82h0A.83.83,0,0,0,33,41.93l.62,1.35-1,.44Z"/><path class="cls-2" d="M34.43,41.76l.83-.55a.53.53,0,0,0,.77.08c.27-.18.37-.38.25-.56s-.51-.06-.92.12-1.13.44-1.55-.2-.05-1.24.6-1.67,1.43-.45,1.83.07l-.81.53c-.19-.23-.41-.19-.65,0s-.33.33-.22.5.46,0,.85-.15c.54-.24,1.19-.49,1.65.21s.07,1.27-.65,1.74S34.86,42.35,34.43,41.76Z"/></svg>