<svg width="28" height="30" viewBox="0 0 28 30" fill="none" xmlns="http://www.w3.org/2000/svg">
<path d="M26.9319 16.3438C26.6821 16.1027 26.3796 15.9183 26.0466 15.8042C25.7135 15.6901 25.3583 15.6491 25.0067 15.6841C25.0941 15.3162 25.0883 14.9334 24.9898 14.5681C24.8913 14.2028 24.7029 13.8659 24.4407 13.5857C24.1785 13.3056 23.8502 13.0905 23.4836 12.9587C23.1169 12.827 22.7228 12.7824 22.3345 12.8288C22.3719 12.6607 22.3906 12.4893 22.3903 12.3174C22.39 11.7218 22.1603 11.1476 21.7459 10.7062C21.3315 10.2647 20.7618 9.98757 20.1475 9.92845L24.3684 5.85661C24.8353 5.40658 25.0978 4.79605 25.0981 4.15934C25.0984 3.52262 24.8364 2.91188 24.3699 2.46146C23.9034 2.01104 23.2705 1.75784 22.6105 1.75757C21.9505 1.75729 21.3174 2.00996 20.8505 2.45999L12.5125 10.5035C11.9464 11.0495 11.2641 11.4277 10.5386 11.5976C9.99478 11.725 9.44545 11.7265 9.00362 11.6058C8.56695 10.9505 8.15701 10.4141 8.06833 10.2993C7.16919 9.11554 6.34079 7.91069 5.37483 6.46533C4.38155 4.98131 3.1259 4.34329 1.92946 4.71562C1.6094 4.81492 1.30573 4.99596 0.999641 5.26868C0.457297 5.75291 -0.0388898 6.29631 0.00240852 6.99028C0.0327749 7.52196 0.351015 7.99886 0.831108 8.72066C1.10441 9.12931 1.44117 9.63814 1.80101 10.2732C2.01692 10.6555 2.17938 11.0519 2.35155 11.4716C2.41957 11.638 2.49033 11.81 2.56412 11.9822C2.78762 12.4981 3.07154 13.1815 3.28714 13.8925C3.64304 15.0642 3.44991 16.1917 3.24584 17.3843C3.09857 18.2435 2.94643 19.132 3.00291 20.0623C3.07488 21.2394 3.41772 22.4328 4.02171 23.6092C4.59108 24.7186 5.36238 25.7477 6.31407 26.6646C8.07046 28.3589 10.2313 29.4662 12.4025 29.782C12.8073 29.8417 13.2162 29.8721 13.6257 29.8728C14.2335 29.8754 14.8389 29.7999 15.4261 29.6484C16.4082 29.3915 17.2542 28.9255 17.9405 28.2634L24.9071 21.5449L26.9316 19.5919C27.3775 19.1608 27.6279 18.5768 27.6279 17.9679C27.628 17.359 27.3777 16.7749 26.9319 16.3438ZM23.7107 14.1198C23.9967 14.3962 24.1573 14.7707 24.1573 15.1612C24.1573 15.5517 23.9967 15.9262 23.7107 16.2026L23.5652 16.3432L21.5407 18.2962L21.3946 18.4371C21.2532 18.5754 21.0848 18.6854 20.8992 18.7607C20.7135 18.8359 20.5143 18.875 20.3129 18.8757C20.1115 18.8764 19.912 18.8386 19.7258 18.7646C19.5396 18.6906 19.3704 18.5818 19.228 18.4444C19.0856 18.307 18.9728 18.1439 18.896 17.9643C18.8193 17.7847 18.7801 17.5922 18.7808 17.3979C18.7814 17.2036 18.8219 17.0114 18.9 16.8323C18.978 16.6532 19.0919 16.4908 19.2353 16.3543L20.3941 15.2365L21.5525 14.1189C21.8391 13.8435 22.2273 13.6889 22.6318 13.6891C23.0363 13.6893 23.4243 13.8441 23.7107 14.1198ZM19.9018 10.7941C20.2138 10.794 20.5188 10.8833 20.7782 11.0504C21.0376 11.2176 21.2398 11.4553 21.3592 11.7333C21.4785 12.0114 21.5098 12.3173 21.4489 12.6125C21.388 12.9076 21.2378 13.1788 21.0172 13.3916L19.7488 14.6152L18.5903 15.7336L18.481 15.8393C18.1852 16.1247 17.784 16.285 17.3656 16.285C16.9473 16.285 16.5461 16.1247 16.2503 15.8393C15.9544 15.554 15.7883 15.1669 15.7883 14.7634C15.7883 14.3598 15.9544 13.9728 16.2503 13.6874L17.3237 12.6516L18.7868 11.2402C18.9328 11.0984 19.1066 10.986 19.298 10.9094C19.4894 10.8328 19.6946 10.7936 19.9018 10.7941ZM17.2976 27.6436C16.157 28.7435 14.4674 29.1961 12.5398 28.9146C10.5608 28.6264 8.5791 27.6072 6.95935 26.0438C6.7974 25.8876 6.64182 25.7287 6.49262 25.5672C6.95153 25.694 7.42639 25.7591 7.90375 25.7606C8.1624 25.7609 8.42061 25.7402 8.67566 25.6988C9.84811 25.5069 10.7773 24.8721 11.3628 23.8632C11.3892 23.8212 11.4065 23.7745 11.4137 23.7258C11.421 23.6772 11.418 23.6277 11.405 23.5802C11.3919 23.5327 11.3691 23.4882 11.3378 23.4495C11.3066 23.4107 11.2676 23.3784 11.2231 23.3545C11.1786 23.3305 11.1296 23.3155 11.0789 23.3103C11.0283 23.3051 10.9771 23.3098 10.9284 23.324C10.8796 23.3383 10.8344 23.362 10.7954 23.3935C10.7563 23.425 10.7243 23.4638 10.7011 23.5076C10.225 24.3278 9.50072 24.8235 8.54873 24.9793C7.42851 25.1627 6.25182 24.8252 5.51664 24.3518C5.26618 23.9893 5.0399 23.6117 4.83917 23.2214C4.28984 22.151 3.97828 21.0712 3.9133 20.0125C3.86228 19.1803 3.99984 18.3785 4.14499 17.5296C4.35756 16.2922 4.5762 15.013 4.1623 13.6479C3.93395 12.8953 3.63788 12.1832 3.40527 11.6454C3.33421 11.4813 3.26528 11.3132 3.19878 11.1506C3.02417 10.7247 2.84349 10.2844 2.60086 9.85462C2.22553 9.19083 1.87753 8.66735 1.59877 8.24669C1.21099 7.66345 0.93071 7.24191 0.912793 6.94077C0.901862 6.75476 0.97717 6.4876 1.61912 5.91549C1.8253 5.73123 2.01843 5.61288 2.20914 5.55371C3.30718 5.21185 4.2534 6.41202 4.60808 6.9437C5.58436 8.40282 6.42187 9.62086 7.33529 10.8225L7.33741 10.8251C7.80536 11.4315 9.06405 13.1862 9.26325 14.0114C9.29064 14.1249 9.36364 14.2233 9.4662 14.2849C9.51699 14.3154 9.5735 14.3359 9.63251 14.3453C9.69153 14.3548 9.75189 14.3529 9.81015 14.3398C9.86841 14.3267 9.92343 14.3027 9.97207 14.2691C10.0207 14.2355 10.062 14.193 10.0936 14.144C10.1252 14.095 10.1465 14.0405 10.1563 13.9836C10.1661 13.9266 10.1641 13.8684 10.1506 13.8122C10.0661 13.4624 9.85813 13.0233 9.60396 12.5748C9.99118 12.5836 10.3779 12.5427 10.7539 12.4533C11.6412 12.2456 12.4721 11.7868 13.1565 11.1266L21.4945 3.08161C21.7904 2.79625 22.1916 2.63593 22.6099 2.63593C23.0282 2.63593 23.4294 2.79625 23.7253 3.08161C24.0211 3.36697 24.1873 3.75401 24.1873 4.15757C24.1873 4.56113 24.0211 4.94817 23.7253 5.23353L18.1424 10.6183L15.6056 13.0652C15.2244 13.4318 14.9768 13.9078 14.9 14.4217C14.8231 14.9356 14.9211 15.4597 15.1793 15.9153C15.4375 16.3709 15.8419 16.7335 16.3318 16.9485C16.8217 17.1635 17.3708 17.2194 17.8964 17.1078C17.8482 17.4825 17.8943 17.8629 18.0308 18.2168C18.1673 18.5706 18.3901 18.8876 18.6805 19.1408C18.9709 19.394 19.3202 19.5759 19.6989 19.6713C20.0777 19.7666 20.4746 19.7726 20.8562 19.6885C20.8201 20.0275 20.8627 20.3701 20.981 20.6912C21.0993 21.0123 21.2903 21.3039 21.5401 21.5449C21.917 21.9091 22.4104 22.1399 22.9403 22.1999L17.2976 27.6436ZM26.2879 18.9708L25.3368 19.888L24.2627 20.9242C23.9868 21.1897 23.613 21.3388 23.2233 21.3388C22.8336 21.3388 22.4598 21.1897 22.1839 20.9242C21.9086 20.658 21.7541 20.2974 21.7541 19.9214C21.7541 19.5455 21.9086 19.1849 22.1839 18.9187L24.2096 16.9645C24.4867 16.7045 24.8588 16.5603 25.2453 16.563C25.6318 16.5656 26.0017 16.715 26.2749 16.9788C26.5481 17.2426 26.7026 17.5995 26.705 17.9724C26.7075 18.3453 26.5576 18.7041 26.2879 18.9711V18.9708Z" fill="#433CB7"/>
<path d="M8.29023 4.93821C8.33143 4.98262 8.38157 5.01849 8.4376 5.04362C8.49362 5.06876 8.55437 5.08263 8.61613 5.0844C8.67789 5.08617 8.73937 5.0758 8.79685 5.05393C8.85432 5.03205 8.90659 4.99912 8.95045 4.95714C8.99432 4.91516 9.02887 4.86501 9.05201 4.80975C9.07515 4.75448 9.08639 4.69525 9.08505 4.63566C9.08371 4.57607 9.06982 4.51736 9.04421 4.46311C9.01861 4.40886 8.98183 4.36021 8.93612 4.32011L6.65864 2.10022C6.57363 2.0174 6.458 1.97055 6.33719 1.96998C6.21637 1.9694 6.10027 2.01514 6.01442 2.09715C5.92856 2.17915 5.88 2.2907 5.8794 2.40725C5.8788 2.52379 5.92622 2.6358 6.01123 2.71862L8.29023 4.93821Z" fill="#433CB7"/>
<path d="M10.0471 3.59746C10.07 3.69454 10.1264 3.78122 10.207 3.84333C10.2877 3.90544 10.3878 3.93928 10.491 3.93932C10.5251 3.93929 10.559 3.93565 10.5922 3.92848C10.6505 3.91572 10.7057 3.89199 10.7545 3.85866C10.8033 3.82532 10.8449 3.78303 10.8768 3.7342C10.9087 3.68537 10.9303 3.63096 10.9404 3.57407C10.9505 3.51719 10.9488 3.45894 10.9356 3.40266L10.2196 0.356107C10.2075 0.298713 10.1837 0.244222 10.1495 0.195834C10.1153 0.147447 10.0714 0.10614 10.0205 0.0743401C9.9695 0.0425407 9.91246 0.0208904 9.85269 0.0106617C9.79292 0.000432975 9.73163 0.00183215 9.67243 0.014777C9.61323 0.0277218 9.55731 0.0519512 9.50795 0.0860412C9.4586 0.120131 9.4168 0.163394 9.38503 0.213288C9.35325 0.263181 9.33213 0.318699 9.32291 0.376578C9.31369 0.434457 9.31656 0.493529 9.33134 0.550325L10.0471 3.59746Z" fill="#433CB7"/>
<path d="M12.5553 3.91634C12.6693 3.95461 12.7944 3.94765 12.903 3.89701C13.0117 3.84637 13.0951 3.75618 13.135 3.64625L14.1978 0.695489C14.2375 0.5854 14.2302 0.464604 14.1776 0.359675C14.125 0.254746 14.0313 0.17428 13.9172 0.135978C13.8031 0.0976758 13.6779 0.104675 13.5691 0.155437C13.4603 0.206198 13.3769 0.296563 13.3372 0.406652L12.2744 3.35741C12.2348 3.46747 12.2422 3.58816 12.2949 3.69296C12.3476 3.79777 12.4412 3.87811 12.5553 3.91634Z" fill="#433CB7"/>
<path d="M14.2278 4.90814C14.3036 4.99884 14.4137 5.05676 14.5338 5.06918C14.6539 5.08159 14.7742 5.04748 14.8682 4.97435L17.3886 3.01342C17.4353 2.97724 17.4741 2.93255 17.5028 2.88191C17.5315 2.83127 17.5496 2.77566 17.5561 2.71826C17.5626 2.66087 17.5572 2.60281 17.5404 2.5474C17.5236 2.49199 17.4957 2.44031 17.4582 2.39532C17.4207 2.35033 17.3743 2.31291 17.3219 2.28519C17.2694 2.25747 17.2117 2.24 17.1522 2.23377C17.0927 2.22754 17.0325 2.23268 16.9751 2.24888C16.9176 2.26509 16.8641 2.29206 16.8174 2.32824L14.2964 4.29092C14.2026 4.36406 14.1427 4.47013 14.1298 4.58584C14.1169 4.70156 14.1522 4.81747 14.2278 4.90814Z" fill="#433CB7"/>
</svg>
