<svg width="34" height="29" viewBox="0 0 34 29" fill="none" xmlns="http://www.w3.org/2000/svg">
<path d="M29.7069 8.52147C29.4967 8.31867 29.4967 8.01448 29.6543 7.81168L31.4938 5.88511C31.704 5.68231 32.0193 5.68231 32.2295 5.83441C32.4398 6.03721 32.4398 6.3414 32.2821 6.5442L30.4427 8.47077C30.2324 8.72427 29.9171 8.72427 29.7069 8.52147Z" fill="#433CB7"/>
<path d="M25.3974 6.18947C25.1347 6.03737 25.0295 5.73317 25.1872 5.53038L26.4485 3.14751C26.6062 2.89402 26.9215 2.79262 27.1318 2.94472C27.3945 3.09681 27.4997 3.40101 27.342 3.60381L26.0807 5.98667C25.9755 6.18947 25.6602 6.29086 25.3974 6.18947Z" fill="#433CB7"/>
<path d="M21.2457 4.36431C20.9829 4.31361 20.7727 4.00941 20.8778 3.75592L21.561 1.06886C21.561 0.815362 21.8763 0.663264 22.1391 0.713963C22.4019 0.764662 22.6121 1.06886 22.507 1.32235L21.8238 4.00941C21.8238 4.26291 21.5084 4.41501 21.2457 4.36431Z" fill="#433CB7"/>
<path d="M16.8309 3.75589C16.5156 3.75589 16.3054 3.5531 16.3054 3.2489V0.511143C16.3054 0.206947 16.5156 0.00415039 16.8309 0.00415039C17.1463 0.00415039 17.3565 0.206947 17.3565 0.511143V3.2489C17.3565 3.5531 17.1463 3.75589 16.8309 3.75589Z" fill="#433CB7"/>
<path d="M11.7855 4.00941L11.1023 1.32235C11.0498 1.06886 11.2074 0.764662 11.4702 0.713963C11.7855 0.663264 12.1009 0.815362 12.1534 1.06886L12.8367 3.75592C12.8892 4.00941 12.7316 4.31361 12.4688 4.36431C12.1534 4.41501 11.8381 4.26291 11.7855 4.00941Z" fill="#433CB7"/>
<path d="M7.58105 5.98667L6.31972 3.60381C6.16205 3.35031 6.26716 3.04611 6.52994 2.94472C6.79272 2.79262 7.10805 2.89402 7.21317 3.14751L8.4745 5.53038C8.63217 5.78387 8.52706 6.08807 8.26428 6.18947C8.0015 6.29086 7.68617 6.18947 7.58105 5.98667Z" fill="#433CB7"/>
<path d="M3.21895 8.52174L1.37951 6.59517C1.16928 6.39237 1.22184 6.08818 1.43206 5.88538C1.64228 5.68258 1.95762 5.73328 2.16784 5.93608L4.00729 7.86265C4.21751 8.06545 4.16495 8.36964 3.95473 8.57244C3.74451 8.72454 3.42918 8.72454 3.21895 8.52174Z" fill="#433CB7"/>
<path d="M1.43122 22.871C1.221 22.6683 1.221 22.3641 1.37867 22.1613L3.21812 20.2347C3.42834 20.0319 3.74367 20.0319 3.9539 20.184C4.16412 20.3868 4.16412 20.691 4.00645 20.8938L2.167 22.8204C1.95678 23.0231 1.64145 23.0738 1.43122 22.871Z" fill="#433CB7"/>
<path d="M6.74037 25.8608C6.63526 25.8608 6.5827 25.8608 6.47759 25.8101C6.21481 25.658 6.1097 25.3538 6.26737 25.151L7.5287 22.7681C7.68637 22.5146 8.0017 22.4132 8.21193 22.5653C8.47471 22.7174 8.57982 23.0216 8.42215 23.2244L7.16082 25.6073C7.10826 25.7594 6.95059 25.8608 6.74037 25.8608Z" fill="#433CB7"/>
<path d="M11.5226 27.9902C11.2599 27.9395 11.0496 27.6353 11.1548 27.3818L11.838 24.6948C11.8905 24.4413 12.2059 24.2385 12.4686 24.3399C12.7314 24.3906 12.9416 24.6948 12.8365 24.9483L12.1533 27.6353C12.1008 27.8888 11.838 28.0409 11.5226 27.9902Z" fill="#433CB7"/>
<path d="M16.831 28.6998C16.5157 28.6998 16.3055 28.497 16.3055 28.1928V25.455C16.3055 25.1508 16.5157 24.948 16.831 24.948C17.1464 24.948 17.3566 25.1508 17.3566 25.455V28.1928C17.3566 28.497 17.1464 28.6998 16.831 28.6998Z" fill="#433CB7"/>
<path d="M21.5084 27.6352L20.8251 24.9482C20.7726 24.6947 20.9302 24.3905 21.193 24.3398C21.4558 24.2891 21.7711 24.4412 21.8237 24.6947L22.5069 27.3817C22.5595 27.6352 22.4018 27.9394 22.139 27.9901C21.8762 28.0408 21.5609 27.8887 21.5084 27.6352Z" fill="#433CB7"/>
<path d="M26.4486 25.6073L25.1873 23.2244C25.0296 22.9709 25.1347 22.6667 25.3975 22.5653C25.6603 22.4132 25.9756 22.5146 26.0807 22.7681L27.3421 25.151C27.4998 25.4045 27.3946 25.7087 27.1319 25.8101C26.9216 25.9622 26.6063 25.8608 26.4486 25.6073Z" fill="#433CB7"/>
<path d="M31.4938 22.8187L29.6544 20.8921C29.4442 20.6893 29.4967 20.3852 29.7069 20.1824C29.9172 19.9796 30.2325 20.0303 30.4427 20.2331L32.2822 22.1596C32.4924 22.3624 32.4398 22.6666 32.2296 22.8694C32.0194 23.0722 31.7041 23.0215 31.4938 22.8187Z" fill="#433CB7"/>
<path d="M16.8309 23.4768C7.68626 23.4768 0.433584 15.0101 0.11825 14.6552C-0.0394167 14.4524 -0.0394167 14.1989 0.11825 13.9961C0.433584 13.6919 7.68626 5.22512 16.8309 5.22512C25.9756 5.22512 33.2283 13.6919 33.5436 14.0468C33.7013 14.2496 33.7013 14.5031 33.5436 14.7059C33.2283 15.0101 25.9756 23.4768 16.8309 23.4768ZM1.22192 14.351C2.64092 15.872 9.15782 22.4629 16.8309 22.4629C24.5041 22.4629 31.021 15.872 32.44 14.351C31.021 12.83 24.5041 6.23911 16.8309 6.23911C9.15782 6.23911 2.64092 12.83 1.22192 14.351Z" fill="#433CB7"/>
<path d="M16.831 21.0434C12.9944 21.0434 9.89367 18.0521 9.89367 14.3511C9.89367 10.6501 12.9944 7.6588 16.831 7.6588C20.6676 7.6588 23.7684 10.6501 23.7684 14.3511C23.7684 18.0521 20.6676 21.0434 16.831 21.0434ZM16.831 8.67278C13.5726 8.67278 10.9448 11.2077 10.9448 14.3511C10.9448 17.4944 13.5726 20.0294 16.831 20.0294C20.0895 20.0294 22.7172 17.4944 22.7172 14.3511C22.7172 11.2077 20.0895 8.67278 16.831 8.67278Z" fill="#433CB7"/>
<path d="M16.8309 17.7477C15.9374 17.7477 15.044 17.3928 14.3082 16.7337C12.9418 15.4155 12.9418 13.2355 14.3082 11.9173C15.0965 11.1568 16.2528 10.8019 17.3564 10.954C17.5667 11.0047 17.7243 11.1061 17.7769 11.3089C17.8294 11.5117 17.7769 11.6638 17.6718 11.8159C17.4615 12.0187 17.3564 12.3229 17.3564 12.6271C17.3564 13.2862 17.882 13.7932 18.5652 13.7932C18.8805 13.7932 19.1959 13.6918 19.4061 13.489C19.5638 13.3369 19.774 13.3369 19.9317 13.3876C20.1419 13.4383 20.247 13.5904 20.2995 13.7932C20.5098 14.8578 20.1419 15.9732 19.301 16.7337C18.6178 17.4435 17.7243 17.7477 16.8309 17.7477ZM16.4104 12.0187C15.8849 12.1201 15.4644 12.3229 15.0965 12.6778C14.1505 13.5904 14.1505 15.1113 15.0965 16.0746C16.0425 16.9872 17.6192 16.9872 18.6178 16.0746C18.9857 15.7197 19.1959 15.2634 19.301 14.8071C19.0908 14.8578 18.828 14.9085 18.6178 14.9085C17.3564 14.9085 16.3579 13.9452 16.3579 12.7285C16.3053 12.4243 16.3579 12.2215 16.4104 12.0187Z" fill="#433CB7"/>
</svg>
